<svg xmlns="http://www.w3.org/2000/svg" viewBox="0 0 412.94 88.05"><defs><style>.cls-1{fill:#269ac7;}</style></defs><title>アセット 33</title><g id="レイヤー_2" data-name="レイヤー 2"><g id="PC"><path class="cls-1" d="M44,88A44,44,0,1,1,79.23,17.59a1,1,0,1,1-1.6,1.2A42,42,0,1,0,44,86,41.7,41.7,0,0,0,77.67,69.21a1,1,0,1,1,1.6,1.2A43.68,43.68,0,0,1,44,88Z"/><path class="cls-1" d="M185.42,86.2H130.91a12.36,12.36,0,0,1-12.35-12.35v-71a1,1,0,1,1,2,0v71A10.36,10.36,0,0,0,130.91,84.2h54.51a1,1,0,0,1,0,2Z"/><path class="cls-1" d="M210.15,86.2a1,1,0,0,1-.89-1.45L247.81,7.63c1.87-3.73,4.44-5.79,7.24-5.79s5.37,2.06,7.24,5.79l38.56,77.13a1,1,0,1,1-1.79.9L260.5,8.52c-1.49-3-3.47-4.68-5.45-4.68s-4,1.71-5.45,4.68L211,85.65A1,1,0,0,1,210.15,86.2Z"/><path class="cls-1" d="M370.75,86.2a1,1,0,0,1-1-1V54.51a1,1,0,1,1,2,0V85.2A1,1,0,0,1,370.75,86.2Z"/><path class="cls-1" d="M359.81,59.79a4.66,4.66,0,0,1-1.19-.16,4.73,4.73,0,0,1-3-2.52L328.68,3.29a1,1,0,1,1,1.79-.9l26.91,53.83a2.68,2.68,0,0,0,4,1.07l5.3-3.52a7.89,7.89,0,0,1,8.19,0l5.26,3.51a2.67,2.67,0,0,0,4-1.06L411,2.4a1,1,0,0,1,1.79.9L385.92,57.12A4.67,4.67,0,0,1,379,58.95l-5.26-3.51a5.93,5.93,0,0,0-6,0L362.49,59A4.84,4.84,0,0,1,359.81,59.79Z"/></g></g></svg>