<svg xmlns="http://www.w3.org/2000/svg" viewBox="0 0 744.17 419.84"><defs><style>.cls-1{fill:#fff;}</style></defs><title>アセット 1</title><g id="レイヤー_2" data-name="レイヤー 2"><g id="レイヤー_1のコピー_3" data-name="レイヤー 1のコピー 3"><path class="cls-1" d="M140.55,274.69A62.91,62.91,0,1,1,190.86,174a1.43,1.43,0,1,1-2.29,1.72,60,60,0,1,0,.05,72,1.43,1.43,0,1,1,2.29,1.71A62.42,62.42,0,0,1,140.55,274.69Z"/><path class="cls-1" d="M342.59,272.05H264.7a17.66,17.66,0,0,1-17.64-17.64V152.94a1.43,1.43,0,1,1,2.86,0V254.41a14.8,14.8,0,0,0,14.78,14.78h77.89a1.43,1.43,0,0,1,0,2.86Z"/><path class="cls-1" d="M377.93,272.05a1.43,1.43,0,0,1-1.28-2.07l55.1-110.21c2.67-5.33,6.34-8.27,10.34-8.27s7.68,2.94,10.34,8.27L507.54,270a1.43,1.43,0,1,1-2.56,1.28l-55.1-110.21c-2.12-4.25-5-6.69-7.78-6.69s-5.66,2.44-7.79,6.69l-55.1,110.21A1.43,1.43,0,0,1,377.93,272.05Z"/><path class="cls-1" d="M607.43,272.05a1.43,1.43,0,0,1-1.43-1.43V226.76a1.43,1.43,0,1,1,2.86,0v43.87A1.43,1.43,0,0,1,607.43,272.05Z"/><path class="cls-1" d="M591.78,234.31a6.66,6.66,0,0,1-1.7-.22,6.76,6.76,0,0,1-4.32-3.6L547.3,153.58a1.43,1.43,0,1,1,2.56-1.28l38.46,76.91a3.83,3.83,0,0,0,5.71,1.52l7.57-5a11.28,11.28,0,0,1,11.71,0l7.51,5a3.82,3.82,0,0,0,5.71-1.52L665,152.3a1.43,1.43,0,0,1,2.56,1.28l-38.46,76.91a6.68,6.68,0,0,1-9.85,2.62l-7.51-5a8.47,8.47,0,0,0-8.54,0l-7.57,5A6.92,6.92,0,0,1,591.78,234.31Z"/><path class="cls-1" d="M742.74,419.84H1.43A1.43,1.43,0,0,1,0,418.41V1.43A1.43,1.43,0,0,1,1.43,0H742.74a1.43,1.43,0,0,1,1.43,1.43v417A1.43,1.43,0,0,1,742.74,419.84ZM2.86,417H741.31V2.86H2.86Z"/></g></g></svg>