<svg xmlns="http://www.w3.org/2000/svg" viewBox="0 0 16.17 29.91"><defs><style>.cls-1{fill:#4267af;}</style></defs><title>アセット 33</title><g id="レイヤー_2" data-name="レイヤー 2"><g id="PC"><path class="cls-1" d="M15.56,0H11.68C7.33,0,4.51,2.89,4.51,7.36v3.39H.61a.61.61,0,0,0-.61.61v4.92a.61.61,0,0,0,.61.61h3.9V29.3a.61.61,0,0,0,.61.61h5.09a.61.61,0,0,0,.61-.61V16.89h4.56a.61.61,0,0,0,.61-.61V11.37a.61.61,0,0,0-.61-.61H10.82V7.88c0-1.38.33-2.09,2.13-2.09h2.61a.61.61,0,0,0,.61-.61V.62A.61.61,0,0,0,15.56,0Z"/></g></g></svg>