<svg xmlns="http://www.w3.org/2000/svg" viewBox="0 0 33.37 27.12"><defs><style>.cls-1{fill:#1b92dd;}</style></defs><title>アセット 34</title><g id="レイヤー_2" data-name="レイヤー 2"><g id="PC"><path class="cls-1" d="M33.37,3.21a13.69,13.69,0,0,1-3.93,1.08,6.87,6.87,0,0,0,3-3.79A13.71,13.71,0,0,1,28.1,2.16,6.85,6.85,0,0,0,16.44,8.41,19.44,19.44,0,0,1,2.32,1.25a6.85,6.85,0,0,0,2.12,9.14,6.82,6.82,0,0,1-3.1-.86s0,.06,0,.09a6.85,6.85,0,0,0,5.49,6.71,6.85,6.85,0,0,1-3.09.12,6.85,6.85,0,0,0,6.4,4.75,13.74,13.74,0,0,1-8.5,2.93A13.86,13.86,0,0,1,0,24a19.38,19.38,0,0,0,10.5,3.08C23.09,27.12,30,16.69,30,7.64q0-.45,0-.89A13.91,13.91,0,0,0,33.37,3.21Z"/></g></g></svg>